<?xml version="1.0" encoding="UTF-8" standalone="no"?>
<!-- Created with Inkscape (http://www.inkscape.org/) -->

<svg
   width="99.073357mm"
   height="35.012314mm"
   viewBox="0 0 99.073357 35.012314"
   version="1.1"
   id="svg3867"
   inkscape:version="1.1.2 (b8e25be833, 2022-02-05)"
   sodipodi:docname="UPI logo.svg"
   xmlns:inkscape="http://www.inkscape.org/namespaces/inkscape"
   xmlns:sodipodi="http://sodipodi.sourceforge.net/DTD/sodipodi-0.dtd"
   xmlns="http://www.w3.org/2000/svg"
   xmlns:svg="http://www.w3.org/2000/svg"
   xmlns:rdf="http://www.w3.org/1999/02/22-rdf-syntax-ns#"
   xmlns:cc="http://creativecommons.org/ns#"
   xmlns:dc="http://purl.org/dc/elements/1.1/">
  <title
     id="title4185">UPI</title>
  <sodipodi:namedview
     id="namedview3869"
     pagecolor="#ffffff"
     bordercolor="#000000"
     borderopacity="0.25"
     inkscape:pageshadow="2"
     inkscape:pageopacity="0.0"
     inkscape:pagecheckerboard="true"
     inkscape:document-units="mm"
     showgrid="false"
     fit-margin-top="0"
     fit-margin-left="0"
     fit-margin-right="0"
     fit-margin-bottom="0"
     showborder="false"
     inkscape:zoom="0.46235269"
     inkscape:cx="135.17819"
     inkscape:cy="32.442765"
     inkscape:window-width="1366"
     inkscape:window-height="705"
     inkscape:window-x="-8"
     inkscape:window-y="-8"
     inkscape:window-maximized="1"
     inkscape:current-layer="layer1" />
  <defs
     id="defs3864">
    <clipPath
       clipPathUnits="userSpaceOnUse"
       id="clipPath2338">
      <path
         d="M 0.64,0.32 V 793.76001 H 1122.5601 V 0.32 Z"
         clip-rule="evenodd"
         id="path2336" />
    </clipPath>
  </defs>
  <g
     inkscape:label="Layer 1"
     inkscape:groupmode="layer"
     id="layer1"
     transform="translate(-69.492225,-94.655692)">
    <g
       id="g2332"
       transform="matrix(0.26458333,0,0,0.26458333,-66.29975,41.032589)">
      <g
         id="g2334"
         clip-path="url(#clipPath2338)">
        <g
           id="g2340"
           transform="translate(516.28998,316.26001)">
          <path
             d="M 0,0 H 2.73 L 0.16,10.89 c -0.32,1.6 -0.32,2.89 0.16,3.69 0.65,0.8 1.61,1.28 3.05,1.28 1.44,0 2.56,-0.48 3.52,-1.28 0.96,-0.8 1.6,-2.09 1.92,-3.69 L 11.54,0 h 2.72 L 11.7,11.21 c -0.65,2.41 -1.61,4.17 -3.21,5.45 -1.44,1.280001 -3.36,1.76 -5.76,1.76 -2.41,0 -4.01,-0.479999 -4.97,-1.76 -0.8,-1.12 -1.12,-3.04 -0.48,-5.45 z"
             style="fill:#424143;fill-opacity:1;fill-rule:nonzero;stroke:none"
             id="path2342" />
        </g>
        <g
           id="g2344"
           transform="translate(530.22998,334.20001)">
          <path
             d="m 0,0 4.48,-18.58 8.49,10.89 c 0.16,0.32 0.48,0.64 0.64,0.96 0.16,0.48 0.48,0.8 0.64,1.28 l 3.040001,-12.490001 h 2.57 L 15.37,0.8 6.72,-10.41 C 6.56,-10.73 6.4,-11.05 6.08,-11.37 5.92,-11.69 5.76,-12.01 5.6,-12.49 L 2.56,0 Z"
             style="fill:#424143;fill-opacity:1;fill-rule:nonzero;stroke:none"
             id="path2346" />
        </g>
        <g
           id="g2348">
          <path
             d="m 549.92999,334.20001 4.32001,-17.94 h 2.71997 l -4.15997,17.94 z"
             style="fill:#424143;fill-opacity:1;fill-rule:nonzero;stroke:none"
             id="path2350" />
        </g>
        <g
           id="g2352"
           transform="translate(556.81,334.20001)">
          <path
             d="m 0,0 4.33,-17.940001 h 9.76 L 13.45,-15.38 H 6.57 l -1.12,4.49 h 6.88 l -0.64,2.56 H 4.81 L 2.88,0 Z"
             style="fill:#424143;fill-opacity:1;fill-rule:nonzero;stroke:none"
             id="path2354" />
        </g>
        <g
           id="g2356">
          <path
             d="m 569.62,334.20001 4.33001,-17.94 h 2.88001 l -4.32001,17.94 z"
             style="fill:#424143;fill-opacity:1;fill-rule:nonzero;stroke:none"
             id="path2358" />
        </g>
        <g
           id="g2360"
           transform="translate(576.51001,334.20001)">
          <path
             d="m 0,0 4.32,-17.940001 h 9.77 L 13.45,-15.38 H 6.57 l -0.96,4.49 h 6.88 l -0.64,2.56 H 4.96 l -1.44,5.77 h 6.89 L 9.77,0 Z"
             style="fill:#424143;fill-opacity:1;fill-rule:nonzero;stroke:none"
             id="path2362" />
        </g>
        <g
           id="g2364"
           transform="translate(593.01001,331.64001)">
          <path
             d="m 0,0 h 2.4 c 1.28,0 2.4,-0.16 3.04,-0.32 0.64,-0.16 1.28,-0.48 1.92,-0.8 0.8,-0.64 1.44,-1.28 2.08,-2.25 0.48,-0.8 0.8,-1.92 1.12,-3.04 0.33,-1.12 0.33,-2.08 0.33,-3.04 -0.17,-0.81 -0.49,-1.45 -0.97,-2.09 -0.48,-0.48 -0.96,-0.8 -1.6,-0.96 -0.64,-0.16 -1.76,-0.16 -3.2,-0.16 H 4.16 3.04 Z M -3.37,2.56 0.8,-15.38 h 3.84 c 2.56,0 4.32,0.16 5.28,0.48 0.97,0.16 1.77,0.64 2.25,1.28 0.96,0.8 1.44,1.76 1.6,3.04 0.32,1.29 0.16,2.73 -0.16,4.17 -0.48,1.6 -0.96,3.04 -1.92,4.33 C 10.89,-0.96 9.92,0.16 8.8,0.96 7.84,1.6 6.88,1.92 5.76,2.24 4.8,2.4 3.2,2.56 1.12,2.56 H 0.48 Z"
             style="fill:#424143;fill-opacity:1;fill-rule:nonzero;stroke:none"
             id="path2366" />
        </g>
        <g
           id="g2368"
           transform="translate(620.39001,323.79001)">
          <path
             d="M 0,0 H 0.8 C 2.24,0 3.36,-0.16 4,-0.48 4.64,-0.8 4.96,-1.44 5.29,-2.41 5.45,-3.37 5.29,-4.01 4.8,-4.33 4.48,-4.81 3.36,-4.97 1.92,-4.97 h -0.8 z m -0.8,2.4 -1.92,8.01 H -5.28 L -1.12,-7.53 H 3.2 c 1.28,0 2.25,0.16 2.73,0.32 0.64,0.16 1.12,0.32 1.44,0.64 0.48,0.48 0.8,0.96 0.96,1.76 0.16,0.64 0,1.44 -0.16,2.24 C 8.01,-1.76 7.69,-0.96 7.21,-0.16 6.73,0.48 6.09,1.12 5.45,1.44 4.96,1.76 4.32,2.08 3.68,2.24 3.04,2.4 2.08,2.4 0.96,2.4 H 0.32 Z"
             style="fill:#424143;fill-opacity:1;fill-rule:nonzero;stroke:none"
             id="path2370" />
        </g>
        <g
           id="g2372"
           transform="translate(632.08002,327.14999)">
          <path
             d="M 0,0 H 4.81 L 4,-4 C 4,-4.32 4,-4.64 4,-4.96 3.84,-5.28 3.84,-5.6 3.84,-6.09 3.68,-5.6 3.52,-5.28 3.36,-4.96 3.2,-4.64 2.88,-4.32 2.72,-4 Z M 6.09,7.05 5.29,2.41 H -1.6 l -3.2,4.64 h -2.89 l 12.82,-18.58 4,18.58 z"
             style="fill:#424143;fill-opacity:1;fill-rule:nonzero;stroke:none"
             id="path2374" />
        </g>
        <g
           id="g2376"
           transform="translate(645.36999,334.20001)">
          <path
             d="M 0,0 1.92,-8.17 -1.6,-17.940001 H 1.28 L 3.53,-11.85 c 0,0.16 0.16,0.48 0.16,0.64 0.16,0.32 0.16,0.64 0.16,0.8 0.32,-0.16 0.48,-0.48 0.64,-0.8 0.16,-0.16 0.32,-0.48 0.48,-0.64 l 5.28,-6.090001 h 2.89 L 4.65,-8.17 2.73,0 Z"
             style="fill:#424143;fill-opacity:1;fill-rule:nonzero;stroke:none"
             id="path2378" />
        </g>
        <g
           id="g2380"
           transform="translate(672.44,325.39001)">
          <path
             d="m 0,0 c 0,-0.16 0,-0.48 0.16,-1.12 0,-0.48 0,-0.96 0,-1.28 C 0,-2.08 -0.16,-1.6 -0.32,-1.28 -0.64,-0.8 -0.8,-0.32 -1.12,0 l -6.89,9.61 -2.24,-9.77 c -0.16,-0.32 -0.16,-0.8 -0.32,-1.12 0,-0.48 0,-0.8 0,-1.12 -0.16,0.32 -0.32,0.8 -0.32,1.12 -0.16,0.48 -0.32,0.8 -0.64,1.28 l -4.01,8.81 h -2.56 l 8.65,-18.58 2.4,11.21 c 0,0.16 0.16,0.48 0.16,0.96 0,0.32 0.16,0.96 0.16,1.61 0.32,-0.65 0.8,-1.29 1.28,-2.09 0.16,-0.16 0.32,-0.32 0.32,-0.48 L 2.72,-9.77 2.4,8.81 h -2.56 z"
             style="fill:#424143;fill-opacity:1;fill-rule:nonzero;stroke:none"
             id="path2382" />
        </g>
        <g
           id="g2384"
           transform="translate(677.08002,334.20001)">
          <path
             d="M 0,0 4.33,-17.940001 H 14.1 L 13.45,-15.38 H 6.57 l -1.12,4.49 h 6.88 l -0.48,2.56 H 4.81 l -1.28,5.77 h 6.88 L 9.77,0 Z"
             style="fill:#424143;fill-opacity:1;fill-rule:nonzero;stroke:none"
             id="path2386" />
        </g>
        <g
           id="g2388"
           transform="translate(690.04999,334.20001)">
          <path
             d="m 0,0 4.49,-18.58 8.49,10.89 c 0.32,0.32 0.48,0.64 0.64,0.96 0.32,0.48 0.48,0.8 0.8,1.28 l 2.879999,-12.490001 H 20.02 L 15.54,0.8 6.89,-10.41 C 6.57,-10.73 6.41,-11.05 6.25,-11.37 5.93,-11.69 5.77,-12.01 5.61,-12.49 L 2.73,0 Z"
             style="fill:#424143;fill-opacity:1;fill-rule:nonzero;stroke:none"
             id="path2390" />
        </g>
        <g
           id="g2392"
           transform="translate(719.03998,318.82001)">
          <path
             d="M 0,0 -3.68,15.38 H -6.57 L -2.88,0 h -4.65 l 0.64,-2.56 H 5.29 L 4.65,0 Z"
             style="fill:#424143;fill-opacity:1;fill-rule:nonzero;stroke:none"
             id="path2394" />
        </g>
        <g
           id="g2396"
           transform="translate(722.08002,330.67999)">
          <path
             d="m 0,0 2.41,-1.12 c 0,0.8 0.32,1.44 0.8,1.92 0.48,0.32 1.12,0.64 2.08,0.64 0.8,0 1.6,-0.32 2.08,-0.8 C 8.01,0.16 8.49,-0.48 8.65,-1.28 8.81,-2.41 8.33,-3.37 6.73,-4.17 6.57,-4.17 6.41,-4.33 6.25,-4.33 4.65,-5.29 3.53,-6.25 3.05,-7.05 2.57,-7.69 2.57,-8.65 2.73,-9.78 c 0.32,-1.6 1.12,-2.72 2.4,-3.68 1.12,-0.8 2.56,-1.28 4,-1.28 1.44,0 2.4,0.32 3.21,0.8 0.64,0.48 1.12,1.12 1.12,2.08 l -2.41,1.28 c -0.32,-0.64 -0.48,-0.96 -0.8,-1.28 -0.48,-0.32 -0.96,-0.32 -1.44,-0.32 -0.8,0 -1.44,0.16 -1.92,0.64 -0.64,0.32 -0.96,0.8 -1.12,1.6 -0.16,0.97 0.48,2.09 2.24,3.05 0.16,0 0.32,0 0.32,0 1.6,0.96 2.56,1.76 3.04,2.56 0.48,0.64 0.48,1.6 0.16,2.89 -0.32,1.6 -1.12,3.04 -2.4,4 C 7.85,3.52 6.25,4 4.49,4 3.05,4 1.93,3.68 1.12,3.04 0.32,2.24 0,1.28 0,0 Z"
             style="fill:#424143;fill-opacity:1;fill-rule:nonzero;stroke:none"
             id="path2398" />
        </g>
        <g
           id="g2400">
          <path
             d="m 742.90002,334.20001 4.32996,-17.94 h 2.88001 l -4.32001,17.94 z"
             style="fill:#424143;fill-opacity:1;fill-rule:nonzero;stroke:none"
             id="path2402" />
        </g>
        <g
           id="g2404"
           transform="translate(749.95001,334.20001)">
          <path
             d="m 0,0 4.48,-18.58 8.33,10.89 c 0.32,0.32 0.48,0.64 0.8,0.96 0.16,0.48 0.48,0.8 0.64,1.28 l 3.049999,-12.490001 h 2.560002 L 15.37,0.8 6.73,-10.41 C 6.57,-10.73 6.25,-11.05 6.08,-11.37 5.92,-11.69 5.76,-12.01 5.6,-12.49 L 2.56,0 Z"
             style="fill:#424143;fill-opacity:1;fill-rule:nonzero;stroke:none"
             id="path2406" />
        </g>
        <g
           id="g2408"
           transform="translate(778.94,318.82001)">
          <path
             d="M 0,0 -3.69,15.38 H -6.57 L -2.89,0 h -4.64 l 0.48,-2.56 H 5.12 L 4.48,0 Z"
             style="fill:#424143;fill-opacity:1;fill-rule:nonzero;stroke:none"
             id="path2410" />
        </g>
        <g
           id="g2412"
           transform="translate(781.97998,334.20001)">
          <path
             d="m 0,0 4.32,-17.940001 h 9.61 L 13.45,-15.38 H 6.56 l -1.12,4.49 h 6.89 l -0.64,2.56 H 4.8 l -1.44,5.77 h 7.05 L 9.77,0 Z"
             style="fill:#424143;fill-opacity:1;fill-rule:nonzero;stroke:none"
             id="path2414" />
        </g>
        <g
           id="g2416"
           transform="translate(800.23999,323.95001)">
          <path
             d="M 0,0 H 0.48 C 2.08,0 3.04,-0.16 3.68,-0.48 4.16,-0.8 4.64,-1.44 4.8,-2.4 5.12,-3.37 4.96,-4.17 4.48,-4.49 4.16,-4.97 3.2,-5.13 1.76,-5.13 H 1.28 Z m -0.65,2.24 -1.92,8.01 h -2.72 l 4.32,-17.94 h 4.01 c 1.12,0 1.92,0.16 2.56,0.32 0.64,0.16 1.12,0.32 1.44,0.8 0.48,0.32 0.8,0.96 0.8,1.6 C 8,-4.33 8,-3.53 7.84,-2.73 7.52,-1.28 6.88,-0.16 5.92,0.64 5.12,1.44 4,1.92 2.72,2.08 l 4,8.17 H 3.52 L -0.32,2.24 Z"
             style="fill:#424143;fill-opacity:1;fill-rule:nonzero;stroke:none"
             id="path2418" />
        </g>
        <g
           id="g2420"
           transform="translate(808.56,334.20001)">
          <path
             d="M 0,0 4.33,-17.940001 H 14.1 L 13.46,-15.38 H 6.57 l -0.96,4.49 h 6.88 l -0.64,2.56 H 4.97 L 2.89,0 Z"
             style="fill:#424143;fill-opacity:1;fill-rule:nonzero;stroke:none"
             id="path2422" />
        </g>
        <g
           id="g2424"
           transform="translate(826.02002,327.14999)">
          <path
             d="M 0,0 H 4.8 L 4,-4 c 0,-0.32 0,-0.64 -0.16,-0.96 0,-0.32 0,-0.64 0,-1.13 C 3.68,-5.6 3.36,-5.28 3.2,-4.96 3.04,-4.64 2.88,-4.32 2.72,-4 Z M 6.08,7.05 5.28,2.41 H -1.76 L -4.81,7.05 H -7.85 L 5.12,-11.53 9.13,7.05 Z"
             style="fill:#424143;fill-opacity:1;fill-rule:nonzero;stroke:none"
             id="path2426" />
        </g>
        <g
           id="g2428"
           transform="translate(853.56,320.73999)">
          <path
             d="m 0,0 c -0.64,-0.8 -1.28,-1.28 -2.08,-1.6 -0.8,-0.32 -1.76,-0.64 -2.72,-0.64 -1.92,0 -3.68,0.64 -5.12,1.92 -1.45,1.29 -2.57,2.89 -3.05,4.97 -0.32,1.92 -0.16,3.52 0.64,4.81 0.96,1.12 2.25,1.76 4.01,1.76 0.96,0 2.08,-0.16 3.04,-0.48 0.96,-0.32 2.08,-0.96 3.04,-1.76 l -0.64,3.36 c -0.96,0.48 -1.92,0.96 -2.88,1.28 -0.96,0.16 -1.92,0.32 -3.04,0.32 -1.28,0 -2.57,-0.16 -3.53,-0.64 -0.96,-0.48 -1.76,-1.12 -2.56,-1.92 -0.64,-0.96 -0.96,-1.92 -1.12,-3.04 -0.32,-1.13 -0.16,-2.41 0.16,-3.69 0.32,-1.44 0.8,-2.56 1.6,-3.84 0.64,-1.13 1.6,-2.09 2.72,-3.05 1.12,-0.8 2.25,-1.44 3.37,-1.92 1.28,-0.48 2.56,-0.64 3.84,-0.64 0.96,0 1.92,0.16 2.88,0.48 0.8,0.32 1.6,0.64 2.41,1.28 z"
             style="fill:#424143;fill-opacity:1;fill-rule:nonzero;stroke:none"
             id="path2430" />
        </g>
        <g
           id="g2432"
           transform="translate(853.88,334.20001)">
          <path
             d="M 0,0 4.33,-17.940001 H 14.1 L 13.46,-15.38 H 6.57 l -1.12,4.49 h 6.89 L 11.7,-8.33 H 4.81 l -1.44,5.77 h 7.04 L 9.77,0 Z"
             style="fill:#424143;fill-opacity:1;fill-rule:nonzero;stroke:none"
             id="path2434" />
        </g>
        <g
           id="g2436">
          <path
             d="M 802.15997,300.72 H 782.62 l 27.05999,-98.05 h 19.53998 z"
             style="fill:#6e6f71;fill-opacity:1;fill-rule:nonzero;stroke:none"
             id="path2438" />
        </g>
        <g
           id="g2440"
           transform="translate(791.90997,205.71001)">
          <path
             d="m 0,0 c -1.28,-1.76 -3.37,-2.72 -6.25,-2.72 h -107.3 l -5.28,19.22 h 19.539999 v 0 h 77.990002 L -26.91,37.009998 h -77.99 v -0.16 h -19.54 l -16.17,58.64 h 19.38 l 10.89,-39.409996 h 87.76 c 2.719999,0 5.440001,-0.810002 7.84,-2.730004 2.41,-1.919998 4.01,-4.159999 4.81,-6.889999 L 0.8,7.21 C 1.6,4.33 1.44,1.92 0,0 Z"
             style="fill:#6e6f71;fill-opacity:1;fill-rule:nonzero;stroke:none"
             id="path2442" />
        </g>
        <g
           id="g2444"
           transform="translate(639.77002,294.63)">
          <path
             d="m 0,0 c -0.96,3.84 -4.49,6.57 -8.49,6.57 h -100.73 c -2.72,0 -4.81,-0.96 -6.09,-2.89 -1.44,-1.92 -1.6,-4.16 -0.96,-6.88 l 24.659999,-88.439999 H -72.07 L -94.010002,-12.66 H -16.02 l 22.1,-78.979999 h 19.379999 z"
             style="fill:#6e6f71;fill-opacity:1;fill-rule:nonzero;stroke:none"
             id="path2446" />
        </g>
        <g
           id="g2448">
          <path
             d="M 862.84998,202.83 887.67999,252.00999 835.63,301.20001 Z"
             style="fill:#028c45;fill-opacity:1;fill-rule:nonzero;stroke:none"
             id="path2450" />
        </g>
        <g
           id="g2452">
          <path
             d="m 845.56,202.83 24.65997,49.17999 -51.88995,49.19002 z"
             style="fill:#f47920;fill-opacity:1;fill-rule:nonzero;stroke:none"
             id="path2454" />
        </g>
      </g>
    </g>
  </g>
  <metadata
     id="metadata4183">
    <rdf:RDF>
      <cc:Work
         rdf:about="">
        <dc:title>UPI</dc:title>
      </cc:Work>
    </rdf:RDF>
  </metadata>
</svg>
